<mxfile host="Electron" agent="Mozilla/5.0 (Macintosh; Intel Mac OS X 10_15_7) AppleWebKit/537.36 (KHTML, like Gecko) draw.io/24.7.8 Chrome/128.0.6613.36 Electron/32.0.1 Safari/537.36" version="24.7.8">
  <diagram name="Page-1" id="_5BvDoRdx4uj1ZWfXYZB">
    <mxGraphModel dx="1773" dy="773" grid="1" gridSize="10" guides="1" tooltips="1" connect="1" arrows="1" fold="1" page="1" pageScale="1" pageWidth="827" pageHeight="1169" math="0" shadow="0">
      <root>
        <mxCell id="0" />
        <mxCell id="1" parent="0" />
        <mxCell id="2xVhr1Oy3MWe59no1xZ0-2" value="ИС Автовокзала" style="shape=umlFrame;whiteSpace=wrap;html=1;pointerEvents=0;width=120;height=30;" vertex="1" parent="1">
          <mxGeometry x="100" y="100" width="420" height="360" as="geometry" />
        </mxCell>
        <mxCell id="2xVhr1Oy3MWe59no1xZ0-16" style="rounded=0;orthogonalLoop=1;jettySize=auto;html=1;exitX=1;exitY=0.3333333333333333;exitDx=0;exitDy=0;exitPerimeter=0;entryX=0;entryY=0.5;entryDx=0;entryDy=0;endArrow=none;endFill=0;" edge="1" parent="1" source="2xVhr1Oy3MWe59no1xZ0-3" target="2xVhr1Oy3MWe59no1xZ0-13">
          <mxGeometry relative="1" as="geometry" />
        </mxCell>
        <mxCell id="2xVhr1Oy3MWe59no1xZ0-3" value="Оператор" style="shape=umlActor;verticalLabelPosition=bottom;verticalAlign=top;html=1;" vertex="1" parent="1">
          <mxGeometry x="10" y="330" width="30" height="60" as="geometry" />
        </mxCell>
        <mxCell id="2xVhr1Oy3MWe59no1xZ0-5" value="Техник" style="shape=umlActor;verticalLabelPosition=bottom;verticalAlign=top;html=1;" vertex="1" parent="1">
          <mxGeometry x="10" y="140" width="30" height="60" as="geometry" />
        </mxCell>
        <mxCell id="2xVhr1Oy3MWe59no1xZ0-10" value="Водитель" style="shape=umlActor;verticalLabelPosition=bottom;verticalAlign=top;html=1;" vertex="1" parent="1">
          <mxGeometry x="620" y="280" width="30" height="60" as="geometry" />
        </mxCell>
        <mxCell id="2xVhr1Oy3MWe59no1xZ0-11" value="Пассажир" style="shape=umlActor;verticalLabelPosition=bottom;verticalAlign=top;html=1;" vertex="1" parent="1">
          <mxGeometry x="620" y="395" width="30" height="60" as="geometry" />
        </mxCell>
        <mxCell id="2xVhr1Oy3MWe59no1xZ0-12" value="Создание&amp;nbsp;&lt;div&gt;заявки о поломке&lt;/div&gt;" style="ellipse;whiteSpace=wrap;html=1;fontSize=10;" vertex="1" parent="1">
          <mxGeometry x="175" y="310" width="75" height="60" as="geometry" />
        </mxCell>
        <mxCell id="2xVhr1Oy3MWe59no1xZ0-15" value="&amp;lt;&amp;lt;include&amp;gt;&amp;gt;" style="rounded=0;orthogonalLoop=1;jettySize=auto;html=1;exitX=0.5;exitY=0;exitDx=0;exitDy=0;entryX=0.5;entryY=1;entryDx=0;entryDy=0;dashed=1;dashPattern=8 8;" edge="1" parent="1" source="2xVhr1Oy3MWe59no1xZ0-13" target="2xVhr1Oy3MWe59no1xZ0-14">
          <mxGeometry x="-0.0038" relative="1" as="geometry">
            <mxPoint as="offset" />
          </mxGeometry>
        </mxCell>
        <mxCell id="2xVhr1Oy3MWe59no1xZ0-13" value="Изменение рассписания" style="ellipse;whiteSpace=wrap;html=1;fontSize=10;" vertex="1" parent="1">
          <mxGeometry x="250" y="377.5" width="85" height="50" as="geometry" />
        </mxCell>
        <mxCell id="2xVhr1Oy3MWe59no1xZ0-14" value="Уведомление" style="ellipse;whiteSpace=wrap;html=1;fontSize=10;" vertex="1" parent="1">
          <mxGeometry x="304" y="280" width="110" height="50" as="geometry" />
        </mxCell>
        <mxCell id="2xVhr1Oy3MWe59no1xZ0-17" style="rounded=0;orthogonalLoop=1;jettySize=auto;html=1;exitX=1;exitY=0.5;exitDx=0;exitDy=0;entryX=0;entryY=0.3333333333333333;entryDx=0;entryDy=0;entryPerimeter=0;endArrow=none;endFill=0;" edge="1" parent="1" source="2xVhr1Oy3MWe59no1xZ0-14" target="2xVhr1Oy3MWe59no1xZ0-11">
          <mxGeometry relative="1" as="geometry" />
        </mxCell>
        <mxCell id="2xVhr1Oy3MWe59no1xZ0-18" style="rounded=0;orthogonalLoop=1;jettySize=auto;html=1;exitX=1;exitY=0.5;exitDx=0;exitDy=0;entryX=0;entryY=0.3333333333333333;entryDx=0;entryDy=0;entryPerimeter=0;endArrow=none;endFill=0;" edge="1" parent="1" source="2xVhr1Oy3MWe59no1xZ0-14" target="2xVhr1Oy3MWe59no1xZ0-10">
          <mxGeometry relative="1" as="geometry">
            <mxPoint x="330" y="315" as="sourcePoint" />
            <mxPoint x="500" y="370" as="targetPoint" />
          </mxGeometry>
        </mxCell>
        <mxCell id="2xVhr1Oy3MWe59no1xZ0-19" value="Просмотр заявок о поломке" style="ellipse;whiteSpace=wrap;html=1;fontSize=10;" vertex="1" parent="1">
          <mxGeometry x="224" y="110" width="80" height="55" as="geometry" />
        </mxCell>
        <mxCell id="2xVhr1Oy3MWe59no1xZ0-21" value="Расчет дорожной ситуации" style="ellipse;whiteSpace=wrap;html=1;fontSize=10;" vertex="1" parent="1">
          <mxGeometry x="140" y="400" width="80" height="50" as="geometry" />
        </mxCell>
        <mxCell id="2xVhr1Oy3MWe59no1xZ0-22" style="rounded=0;orthogonalLoop=1;jettySize=auto;html=1;exitX=0;exitY=0.5;exitDx=0;exitDy=0;entryX=1;entryY=0.3333333333333333;entryDx=0;entryDy=0;entryPerimeter=0;endArrow=none;endFill=0;" edge="1" parent="1" source="2xVhr1Oy3MWe59no1xZ0-21" target="2xVhr1Oy3MWe59no1xZ0-3">
          <mxGeometry relative="1" as="geometry" />
        </mxCell>
        <mxCell id="2xVhr1Oy3MWe59no1xZ0-28" style="rounded=0;orthogonalLoop=1;jettySize=auto;html=1;exitX=0;exitY=0.5;exitDx=0;exitDy=0;endArrow=none;endFill=0;" edge="1" parent="1" source="2xVhr1Oy3MWe59no1xZ0-12">
          <mxGeometry relative="1" as="geometry">
            <mxPoint x="150" y="350" as="sourcePoint" />
            <mxPoint x="40" y="350" as="targetPoint" />
          </mxGeometry>
        </mxCell>
        <mxCell id="2xVhr1Oy3MWe59no1xZ0-33" value="Дублирование в соцсети" style="ellipse;whiteSpace=wrap;html=1;fontSize=10;" vertex="1" parent="1">
          <mxGeometry x="414" y="372.5" width="90" height="60" as="geometry" />
        </mxCell>
        <mxCell id="2xVhr1Oy3MWe59no1xZ0-34" value="&amp;lt;&amp;lt;include&amp;gt;&amp;gt;" style="rounded=0;orthogonalLoop=1;jettySize=auto;html=1;exitX=1;exitY=0.5;exitDx=0;exitDy=0;entryX=0;entryY=0.5;entryDx=0;entryDy=0;dashed=1;dashPattern=8 8;" edge="1" parent="1" source="2xVhr1Oy3MWe59no1xZ0-13" target="2xVhr1Oy3MWe59no1xZ0-33">
          <mxGeometry x="-0.0038" relative="1" as="geometry">
            <mxPoint x="333" y="388" as="sourcePoint" />
            <mxPoint x="333" y="315" as="targetPoint" />
            <mxPoint as="offset" />
          </mxGeometry>
        </mxCell>
        <mxCell id="2xVhr1Oy3MWe59no1xZ0-35" value="Создание отчета об устранении неполадки" style="ellipse;whiteSpace=wrap;html=1;fontSize=10;" vertex="1" parent="1">
          <mxGeometry x="130" y="165" width="140" height="55" as="geometry" />
        </mxCell>
        <mxCell id="2xVhr1Oy3MWe59no1xZ0-36" style="rounded=0;orthogonalLoop=1;jettySize=auto;html=1;exitX=0;exitY=0.5;exitDx=0;exitDy=0;endArrow=none;endFill=0;entryX=1;entryY=0.3333333333333333;entryDx=0;entryDy=0;entryPerimeter=0;" edge="1" parent="1" source="2xVhr1Oy3MWe59no1xZ0-19" target="2xVhr1Oy3MWe59no1xZ0-5">
          <mxGeometry relative="1" as="geometry">
            <mxPoint x="150" y="260" as="sourcePoint" />
            <mxPoint x="50" y="360" as="targetPoint" />
          </mxGeometry>
        </mxCell>
        <mxCell id="2xVhr1Oy3MWe59no1xZ0-37" style="rounded=0;orthogonalLoop=1;jettySize=auto;html=1;exitX=0;exitY=0.5;exitDx=0;exitDy=0;endArrow=none;endFill=0;" edge="1" parent="1" source="2xVhr1Oy3MWe59no1xZ0-35">
          <mxGeometry relative="1" as="geometry">
            <mxPoint x="250" y="148" as="sourcePoint" />
            <mxPoint x="40" y="160" as="targetPoint" />
          </mxGeometry>
        </mxCell>
        <mxCell id="2xVhr1Oy3MWe59no1xZ0-42" value="Получение рекомендаций по рассписанию" style="ellipse;whiteSpace=wrap;html=1;fontSize=10;" vertex="1" parent="1">
          <mxGeometry x="144" y="230" width="116" height="70" as="geometry" />
        </mxCell>
        <mxCell id="2xVhr1Oy3MWe59no1xZ0-43" style="rounded=0;orthogonalLoop=1;jettySize=auto;html=1;exitX=0;exitY=0.5;exitDx=0;exitDy=0;endArrow=none;endFill=0;entryX=1;entryY=0.3333333333333333;entryDx=0;entryDy=0;entryPerimeter=0;" edge="1" parent="1" source="2xVhr1Oy3MWe59no1xZ0-42" target="2xVhr1Oy3MWe59no1xZ0-3">
          <mxGeometry relative="1" as="geometry">
            <mxPoint x="185" y="350" as="sourcePoint" />
            <mxPoint x="50" y="360" as="targetPoint" />
          </mxGeometry>
        </mxCell>
        <mxCell id="2xVhr1Oy3MWe59no1xZ0-45" value="Оформление покупки наличными и безналичными деньгами" style="ellipse;whiteSpace=wrap;html=1;fontSize=10;" vertex="1" parent="1">
          <mxGeometry x="335" y="130" width="140" height="80" as="geometry" />
        </mxCell>
        <mxCell id="2xVhr1Oy3MWe59no1xZ0-46" value="Кассир" style="shape=umlActor;verticalLabelPosition=bottom;verticalAlign=top;html=1;" vertex="1" parent="1">
          <mxGeometry x="600" y="150" width="30" height="60" as="geometry" />
        </mxCell>
        <mxCell id="2xVhr1Oy3MWe59no1xZ0-50" style="rounded=0;orthogonalLoop=1;jettySize=auto;html=1;exitX=1;exitY=0.5;exitDx=0;exitDy=0;entryX=0;entryY=0.3333333333333333;entryDx=0;entryDy=0;entryPerimeter=0;endArrow=none;endFill=0;" edge="1" parent="1" source="2xVhr1Oy3MWe59no1xZ0-45" target="2xVhr1Oy3MWe59no1xZ0-46">
          <mxGeometry relative="1" as="geometry">
            <mxPoint x="424" y="315" as="sourcePoint" />
            <mxPoint x="630" y="310" as="targetPoint" />
          </mxGeometry>
        </mxCell>
      </root>
    </mxGraphModel>
  </diagram>
</mxfile>
